<svg width="33" height="33" viewBox="0 0 33 33" fill="none" xmlns="http://www.w3.org/2000/svg">
<path fill-rule="evenodd" clip-rule="evenodd" d="M6.5 24.5H15.8326H16.5H25.1659C25.1715 24.5 25.1771 24.4999 25.1827 24.4998C29.2251 24.4907 32.4993 21.211 32.4993 17.1665C32.4993 13.1164 29.216 9.83315 25.1659 9.83315C25.0051 9.83315 24.8455 9.83833 24.6872 9.84852C23.0132 6.66837 19.6761 4.5 15.8326 4.5C10.9882 4.5 6.94843 7.94467 6.02895 12.5182C2.93541 12.7585 0.5 15.3448 0.5 18.5C0.5 21.8137 3.18629 24.5 6.5 24.5Z" fill="#E7F1FF"/>
<path fill-rule="evenodd" clip-rule="evenodd" d="M6.5 24.5H15.8326H16.5H25.1659C25.1715 24.5 25.1771 24.4999 25.1827 24.4998C29.2251 24.4907 32.4993 21.211 32.4993 17.1665C32.4993 13.1164 29.216 9.83315 25.1659 9.83315C25.0051 9.83315 24.8455 9.83833 24.6872 9.84852C23.0132 6.66837 19.6761 4.5 15.8326 4.5C10.9882 4.5 6.94843 7.94467 6.02895 12.5182C2.93541 12.7585 0.5 15.3448 0.5 18.5C0.5 21.8137 3.18629 24.5 6.5 24.5Z" fill="url(#paint0_linear_740_240455)"/>
<path fill-rule="evenodd" clip-rule="evenodd" d="M6.5 24.5H15.8326H16.5H25.1659C25.1715 24.5 25.1771 24.4999 25.1827 24.4998C29.2251 24.4907 32.4993 21.211 32.4993 17.1665C32.4993 13.1164 29.216 9.83315 25.1659 9.83315C25.0051 9.83315 24.8455 9.83833 24.6872 9.84852C23.0132 6.66837 19.6761 4.5 15.8326 4.5C10.9882 4.5 6.94843 7.94467 6.02895 12.5182C2.93541 12.7585 0.5 15.3448 0.5 18.5C0.5 21.8137 3.18629 24.5 6.5 24.5Z" fill="url(#paint1_linear_740_240455)"/>
<path d="M0.5 18.5C0.5 15.1863 3.18629 12.5 6.5 12.5H8.5C12.9183 12.5 16.5 16.0817 16.5 20.5V24.5H6.5C3.18629 24.5 0.5 21.8137 0.5 18.5Z" fill="url(#paint2_radial_740_240455)"/>
<path d="M5.83203 14.5C5.83203 8.97715 10.3092 4.5 15.832 4.5C21.3549 4.5 25.832 8.97715 25.832 14.5C25.832 20.0229 21.3549 24.5 15.832 24.5C10.3092 24.5 5.83203 20.0229 5.83203 14.5Z" fill="url(#paint3_radial_740_240455)"/>
<circle cx="25.1654" cy="17.1663" r="7.33333" fill="url(#paint4_radial_740_240455)"/>
<path fill-rule="evenodd" clip-rule="evenodd" d="M20.5 27.8334V18.7672C20.5 17.9338 21.5093 17.5183 22.0961 18.1101L28.4184 24.4861C29.2911 25.3341 29.8333 26.5204 29.8333 27.8334C29.8333 30.4107 27.744 32.5 25.1667 32.5C22.5895 32.5 20.5002 30.4109 20.5 27.8337C20.5 27.8336 20.5 27.8335 20.5 27.8334Z" fill="url(#paint5_linear_740_240455)"/>
<path fill-rule="evenodd" clip-rule="evenodd" d="M8.5 26.9186V19.7584C8.5 18.925 9.50927 18.5095 10.0961 19.1013L14.9871 24.0338C15.9089 24.7666 16.5 25.8977 16.5 27.1668C16.5 29.376 14.7091 31.1668 12.5 31.1668C10.2909 31.1668 8.5 29.376 8.5 27.1668C8.5 27.0824 8.50262 26.9986 8.50778 26.9154L8.5 26.9186Z" fill="url(#paint6_linear_740_240455)"/>
<defs>
<linearGradient id="paint0_linear_740_240455" x1="10.4998" y1="9.16667" x2="16.4999" y2="24.4999" gradientUnits="userSpaceOnUse">
<stop stop-color="#C6D8F5"/>
<stop offset="1" stop-color="#89AFD1" stop-opacity="0"/>
</linearGradient>
<linearGradient id="paint1_linear_740_240455" x1="14.7662" y1="25.2078" x2="14.3458" y2="4.5" gradientUnits="userSpaceOnUse">
<stop stop-color="#547DDA"/>
<stop offset="0.257422" stop-color="#93C2FF" stop-opacity="0"/>
</linearGradient>
<radialGradient id="paint2_radial_740_240455" cx="0" cy="0" r="1" gradientUnits="userSpaceOnUse" gradientTransform="translate(9.16667 24.5) rotate(-127.875) scale(12.6686 14.661)">
<stop offset="0.683784" stop-color="#8FABDD" stop-opacity="0"/>
<stop offset="1" stop-color="#5582D3"/>
</radialGradient>
<radialGradient id="paint3_radial_740_240455" cx="0" cy="0" r="1" gradientUnits="userSpaceOnUse" gradientTransform="translate(15.832 22.5) rotate(-90) scale(18)">
<stop offset="0.598765" stop-color="#C7DFFF" stop-opacity="0"/>
<stop offset="1" stop-color="#6B97E6"/>
</radialGradient>
<radialGradient id="paint4_radial_740_240455" cx="0" cy="0" r="1" gradientUnits="userSpaceOnUse" gradientTransform="translate(21.2543 22.5441) rotate(-56.3099) scale(14.1017)">
<stop offset="0.47771" stop-color="#8FABDD" stop-opacity="0"/>
<stop offset="1" stop-color="#5582D3"/>
</radialGradient>
<linearGradient id="paint5_linear_740_240455" x1="29.4022" y1="31.7189" x2="18.3286" y2="19.8748" gradientUnits="userSpaceOnUse">
<stop stop-color="#1A43F0"/>
<stop offset="1" stop-color="#6E84FE"/>
</linearGradient>
<linearGradient id="paint6_linear_740_240455" x1="16.1304" y1="30.5095" x2="6.82469" y2="20.3716" gradientUnits="userSpaceOnUse">
<stop stop-color="#1A43F0"/>
<stop offset="1" stop-color="#6E84FE"/>
</linearGradient>
</defs>
</svg>
