<svg xmlns="http://www.w3.org/2000/svg" xmlns:xlink="http://www.w3.org/1999/xlink" version="1.1" id="Capa_1" x="0px" y="0px" viewBox="0 0 792.014 792.015" style="width: 200px; height: 200px; transform-origin: 50% 50%; transform: scaleX(1) scaleY(1) rotate(0deg);" xml:space="preserve" preserveAspectRatio="xMidYMid meet">
<g fill="#FFC500" style="fill:#FFC500;stroke:none" stroke="none">
	<path d="M675.945,330.13H157.784l-41.729-0.029c-7.806,0.043-14.167,6.405-14.197,14.197v433.578   c0.029,7.763,6.376,14.124,14.167,14.139h559.934c7.792-0.015,14.153-6.347,14.197-14.168V344.269   C690.113,336.506,683.751,330.145,675.945,330.13z M469.559,669.803l4.625,17.115H317.786l4.655-17.115l25.402-93.936   c-19.084-14.78-30.553-37.702-30.553-61.952c0-43.393,35.31-78.688,78.703-78.688c43.378,0,78.702,35.295,78.702,78.688   c0,24.25-11.497,47.157-30.582,61.952L469.559,669.803z M222.859,218.992c0-96.094,77.681-174.286,173.134-174.301   c95.409,0.015,173.104,78.207,173.104,174.301v77.185h44.706V214.63c0-57.225-22.367-111.08-62.959-151.686   C510.252,22.368,456.398,0,399.115,0h-6.259c-57.269,0-111.123,22.368-151.729,62.944c-40.591,40.577-62.959,94.46-62.959,151.686   v81.547l44.691,0.015V218.992z" fill="#FFC500" style="fill:#FFC500;stroke:none" stroke="none"/>
</g>
<g fill="#FFC500" style="fill:#FFC500;stroke:none" stroke="none">
</g>
<g fill="#FFC500" style="fill:#FFC500;stroke:none" stroke="none">
</g>
<g fill="#FFC500" style="fill:#FFC500;stroke:none" stroke="none">
</g>
<g fill="#FFC500" style="fill:#FFC500;stroke:none" stroke="none">
</g>
<g fill="#FFC500" style="fill:#FFC500;stroke:none" stroke="none">
</g>
<g fill="#FFC500" style="fill:#FFC500;stroke:none" stroke="none">
</g>
<g fill="#FFC500" style="fill:#FFC500;stroke:none" stroke="none">
</g>
<g fill="#FFC500" style="fill:#FFC500;stroke:none" stroke="none">
</g>
<g fill="#FFC500" style="fill:#FFC500;stroke:none" stroke="none">
</g>
<g fill="#FFC500" style="fill:#FFC500;stroke:none" stroke="none">
</g>
<g fill="#FFC500" style="fill:#FFC500;stroke:none" stroke="none">
</g>
<g fill="#FFC500" style="fill:#FFC500;stroke:none" stroke="none">
</g>
<g fill="#FFC500" style="fill:#FFC500;stroke:none" stroke="none">
</g>
<g fill="#FFC500" style="fill:#FFC500;stroke:none" stroke="none">
</g>
<g fill="#FFC500" style="fill:#FFC500;stroke:none" stroke="none">
</g>
</svg>