<svg xmlns="http://www.w3.org/2000/svg" viewBox="0 0 1920 1920" preserveAspectRatio="xMidYMid meet" style="width: 200px; height: 200px; transform-origin: 50% 50%; transform: scaleX(1) scaleY(1) rotate(0deg);">
    <style>
        .st0{fill:#fff}.st1{fill:none;stroke:#231f20;stroke-width:50;stroke-linecap:round;stroke-linejoin:round;stroke-miterlimit:10}
    </style>
    <path class="st0" d="M1408.1 511.9C1522.8 626.6 1593.7 785 1593.7 960s-70.9 333.4-185.6 448.1c-114.7 114.7-273.1 185.6-448.1 185.6s-333.4-70.9-448.1-185.6C397.2 1293.4 326.3 1135 326.3 960s70.9-333.4 185.6-448.1C626.6 397.2 785 326.3 960 326.3s333.4 70.9 448.1 185.6z" id="Layer_6" style="fill:#FCFAFA"/>
    <path class="st0" d="M960 216.9c410.4 0 743.1 332.7 743.1 743S1370.4 1703 960 1703s-743-332.7-743-743.1 332.6-743 743-743zM1593.7 960c0-175-70.9-333.4-185.6-448.1C1293.4 397.2 1135 326.3 960 326.3s-333.4 70.9-448.1 185.6C397.2 626.6 326.3 785 326.3 960s70.9 333.4 185.6 448.1C626.6 1522.8 785 1593.7 960 1593.7s333.4-70.9 448.1-185.6c114.7-114.7 185.6-273.1 185.6-448.1z" id="Layer_2" style="fill:#FCFAFA"/>
    <g id="STROKES" style="fill:#FCFAFA">
        <g id="XMLID_1_" style="fill:#FCFAFA">
            <circle class="st1" cx="960" cy="960" r="743" style="stroke:#FFCB01"/>
            <path class="st1" d="M1593.7 960c0 175-70.9 333.4-185.6 448.1-114.7 114.7-273.1 185.6-448.1 185.6s-333.4-70.9-448.1-185.6C397.2 1293.4 326.3 1135 326.3 960s70.9-333.4 185.6-448.1C626.6 397.2 785 326.3 960 326.3s333.4 70.9 448.1 185.6C1522.8 626.6 1593.7 785 1593.7 960z" style="stroke:#FFCB01"/>
            <path class="st1" d="M960 602.7V960l-254.2 254.2" style="stroke:#FFCB01"/>
            <path class="st1" d="M326.3 960h111" style="stroke:#FFCB01"/>
            <path class="st1" d="M1482.7 960h111" style="stroke:#FFCB01"/>
            <path class="st1" d="M960 326.3v111" style="stroke:#FFCB01"/>
            <path class="st1" d="M960 1482.7v111" style="stroke:#FFCB01"/>
            <path class="st1" d="M1408.1 511.9l-78.5 78.5" style="stroke:#FFCB01"/>
            <path class="st1" d="M590.4 1329.6l-78.5 78.5" style="stroke:#FFCB01"/>
            <path class="st1" d="M1408.1 1408.1l-78.5-78.5" style="stroke:#FFCB01"/>
            <path class="st1" d="M590.4 590.4l-78.5-78.5" style="stroke:#FFCB01"/>
        </g>
    </g>
</svg>