<svg xmlns="http://www.w3.org/2000/svg" xmlns:xlink="http://www.w3.org/1999/xlink" xmlns:serif="http://www.serif.com/" viewBox="0 0 64 64" version="1.1" xml:space="preserve" style="fill-rule: evenodd; clip-rule: evenodd; stroke-linejoin: round; stroke-miterlimit: 2; width: 200px; height: 200px; transform-origin: 50% 50%; transform: scaleX(1) scaleY(1) rotate(0deg);" preserveAspectRatio="xMidYMid meet"><g transform="matrix(1,0,0,1,-3671.54,-2168.32)" style="fill:#FFFFFF"><g id="Hamburger-Menu" transform="matrix(0.683813,0,0,0.95774,2991.15,2018.98)" style="fill:#FFFFFF"><rect x="995" y="155.929" width="93.593" height="66.824" style="fill:none;"/><clipPath id="_clip1"><rect x="995" y="155.929" width="93.593" height="66.824"/></clipPath><g clip-path="url(#_clip1)" style="fill:#FFFFFF"><g id="Artboard70" style="fill:#FFFFFF"/><g id="Menu-Icon.svg" transform="matrix(1.46239,0,0,1.04413,1041.8,189.341)" style="fill:#FFFFFF"><g transform="matrix(1,0,0,1,-32,-32)" style="fill:#FFFFFF"><clipPath id="_clip2"><rect x="0" y="0" width="64" height="64"/></clipPath><g clip-path="url(#_clip2)" style="fill:#FFFFFF"><g id="Menu-Icon" transform="matrix(0.683813,0,0,0.95774,-680.394,-149.34)" style="fill:#FFFFFF"><g style="fill:#FFFFFF"><rect x="995" y="155.929" width="93.593" height="66.824" style="fill:none;"/><g transform="matrix(1.46239,0,0,1.04413,784.542,-1498.57)" style="fill:#FFFFFF"><path d="M154.591,1603.76C152.062,1603.76 150.008,1601.7 150.008,1599.17C150.008,1596.64 152.062,1594.59 154.591,1594.59L197.236,1594.59C199.766,1594.59 201.819,1596.64 201.819,1599.17C201.819,1601.7 199.766,1603.76 197.236,1603.76L154.591,1603.76Z" style="fill:#FFFFFF"/></g><g transform="matrix(1.46239,0,0,1.04413,784.542,-1480.4)" style="fill:#FFFFFF"><path d="M154.591,1603.76C152.062,1603.76 150.008,1601.7 150.008,1599.17C150.008,1596.64 152.062,1594.59 154.591,1594.59L197.236,1594.59C199.766,1594.59 201.819,1596.64 201.819,1599.17C201.819,1601.7 199.766,1603.76 197.236,1603.76L154.591,1603.76Z" style="fill:#FFFFFF"/></g><g transform="matrix(1.46239,0,0,1.04413,784.542,-1462.23)" style="fill:#FFFFFF"><path d="M154.591,1603.76C152.062,1603.76 150.008,1601.7 150.008,1599.17C150.008,1596.64 152.062,1594.59 154.591,1594.59L197.236,1594.59C199.766,1594.59 201.819,1596.64 201.819,1599.17C201.819,1601.7 199.766,1603.76 197.236,1603.76L154.591,1603.76Z" style="fill:#FFFFFF"/></g></g></g></g></g></g></g></g></g></svg>