<svg xmlns="http://www.w3.org/2000/svg" id="Add_User" data-name="Add User" viewBox="0 0 32 32" preserveAspectRatio="xMidYMid meet" style="width: 200px; height: 200px; transform-origin: 50% 50%; transform: scaleX(1) scaleY(1) rotate(0deg);"><circle cx="16" cy="8" r="6" fill="#FFFFFF" style="fill:#FFFFFF;stroke:none" stroke="none"/><path d="M18,23c0,.55.45,1,1,1h1v5c0,.55-.45,1-1,1h-6c-3.86,0-7-3.14-7-7s3.14-7,7-7h6c.55,0,1,.45,1,1v5h-1c-.55,0-1,.45-1,1Z" fill="#FFFFFF" style="fill:#FFFFFF;stroke:none" stroke="none"/><path d="M27,22h-3v-3c0-.55-.45-1-1-1s-1,.45-1,1v3h-2v2h2v3c0,.55.45,1,1,1s1-.45,1-1v-3h3c.55,0,1-.45,1-1s-.45-1-1-1Z" fill="#FFFFFF" style="fill:#FFFFFF;stroke:none" stroke="none"/></svg>